<svg version="1.0" xmlns="http://www.w3.org/2000/svg"
 width="18px" height="18px" viewBox="0 0 512.000000 512.000000"
 preserveAspectRatio="xMidYMid meet">
<g transform="translate(0.000000,512.000000) scale(0.100000,-0.100000)"
fill="#FFFFFF" stroke="none">
<path d="M2410 3193 l0 -1588 -333 333 c-182 182 -337 332 -342 332 -6 0 -56
-46 -113 -103 l-102 -102 520 -520 520 -520 520 520 520 520 -102 102 c-57 57
-107 103 -113 103 -5 0 -160 -150 -342 -332 l-333 -333 0 1588 0 1587 -150 0
-150 0 0 -1587z"/>
<path d="M362 1098 l3 -513 28 -57 c33 -67 90 -121 166 -157 l56 -26 1945 0
1945 0 67 33 c73 36 124 87 160 161 23 46 23 50 26 559 l3 512 -151 0 -150 0
0 -475 c0 -459 -1 -475 -19 -485 -30 -16 -3753 -14 -3769 2 -9 9 -12 130 -12
485 l0 473 -150 0 -151 0 3 -512z"/>
</g>
</svg>
