<?xml version="1.0" standalone="no"?>
<!DOCTYPE svg PUBLIC "-//W3C//DTD SVG 20010904//EN"
 "http://www.w3.org/TR/2001/REC-SVG-20010904/DTD/svg10.dtd">
<svg version="1.0" xmlns="http://www.w3.org/2000/svg"
 width="512.000000pt" height="512.000000pt" viewBox="0 0 512.000000 512.000000"
 preserveAspectRatio="xMidYMid meet">

<g transform="translate(0.000000,512.000000) scale(0.100000,-0.100000)"
fill="#000000" stroke="none">
<path d="M930 4675 c-234 -51 -436 -255 -485 -490 -22 -105 -22 -3145 0 -3250
50 -238 252 -440 490 -490 105 -22 3145 -22 3250 0 182 38 352 170 434 335 72
147 72 142 69 928 -3 683 -3 698 -24 737 -24 48 -97 100 -150 108 -84 13 -180
-34 -218 -108 -21 -39 -21 -54 -26 -740 -5 -692 -5 -700 -26 -740 -27 -50 -48
-69 -104 -94 -45 -20 -58 -21 -1580 -21 -1522 0 -1535 1 -1580 21 -60 27 -79
45 -106 104 l-24 50 0 1529 c0 1117 3 1539 11 1567 15 50 59 102 106 125 36
18 79 19 738 24 683 5 701 5 740 26 48 24 100 97 108 150 13 84 -34 180 -108
218 -39 21 -51 21 -745 23 -573 1 -717 -1 -770 -12z"/>
<path d="M3500 4678 c-27 -8 -287 -262 -1098 -1072 -614 -613 -1075 -1080
-1090 -1106 l-27 -45 -3 -483 c-3 -557 -3 -561 72 -630 68 -62 83 -64 626 -60
l475 3 42 25 c23 14 521 503 1106 1087 1119 1117 1087 1083 1087 1168 0 85 -2
87 -500 593 -261 265 -490 492 -508 503 -39 25 -131 33 -182 17z m383 -799
l301 -300 -155 -155 -154 -154 -302 302 -303 303 152 152 c84 84 154 153 156
153 2 0 139 -135 305 -301z m-940 -1542 l-638 -637 -300 2 -300 3 -3 300 -2
300 637 637 638 638 302 -302 303 -303 -637 -638z"/>
</g>
</svg>
