<?xml version="1.0" encoding="UTF-8" standalone="no"?>
<!DOCTYPE svg PUBLIC "-//W3C//DTD SVG 1.1//EN" "http://www.w3.org/Graphics/SVG/1.1/DTD/svg11.dtd">
<svg width="56" height="31" viewBox="0 0 56 31" version="1.1" xmlns="http://www.w3.org/2000/svg" xmlns:xlink="http://www.w3.org/1999/xlink" xml:space="preserve" xmlns:serif="http://www.serif.com/" style="fill-rule:evenodd;clip-rule:evenodd;">
    <g id="Монтажная-область1" serif:id="Монтажная область1" transform="matrix(0.925754,0,0,0.993584,-0.828824,-0.155226)">
        <rect x="0.895" y="0.156" width="60.105" height="31.112" style="fill:none;"/>
        <clipPath id="_clip1">
            <rect x="0.895" y="0.156" width="60.105" height="31.112"/>
        </clipPath>
        <g clip-path="url(#_clip1)">
            <g transform="matrix(0.992616,0,0,0.927514,-3.33391,0.955656)">
                <circle cx="16" cy="10" r="9.25" style="fill:none;stroke:black;stroke-width:1.5px;"/>
            </g>
            <g transform="matrix(1.0802,0,0,1.00646,-3.92511,0.896448)">
                <path d="M23.774,9.372L36.077,9.426" style="fill:none;fill-rule:nonzero;stroke:rgb(56,55,55);stroke-width:1px;"/>
            </g>
            <g transform="matrix(1.0802,-7.24911e-05,-7.78025e-05,0.994756,-3.92456,0.979213)">
                <path d="M15.191,9.464L15.188,29" style="fill:none;fill-rule:nonzero;stroke:rgb(56,55,55);stroke-width:1px;"/>
            </g>
            <g transform="matrix(1.0802,0,0,1.00646,14.9269,-4.28023)">
                <path d="M2.926,25.5C2.887,25.38 2.836,25.273 2.772,25.179C2.709,25.083 2.634,25.001 2.546,24.934C2.46,24.866 2.362,24.815 2.251,24.779C2.141,24.744 2.021,24.726 1.889,24.726C1.674,24.726 1.478,24.782 1.301,24.893C1.125,25.004 0.985,25.168 0.881,25.385C0.777,25.601 0.724,25.867 0.724,26.182C0.724,26.497 0.777,26.762 0.882,26.979C0.988,27.196 1.13,27.36 1.31,27.471C1.49,27.582 1.693,27.638 1.918,27.638C2.126,27.638 2.309,27.593 2.468,27.505C2.628,27.415 2.752,27.288 2.841,27.125C2.931,26.96 2.976,26.767 2.976,26.544L3.111,26.572L2.017,26.572L2.017,26.182L3.402,26.182L3.402,26.572C3.402,26.872 3.338,27.132 3.21,27.354C3.084,27.575 2.908,27.747 2.685,27.869C2.462,27.989 2.206,28.05 1.918,28.05C1.596,28.05 1.313,27.974 1.069,27.822C0.826,27.671 0.637,27.456 0.501,27.176C0.366,26.897 0.298,26.565 0.298,26.182C0.298,25.894 0.337,25.636 0.414,25.406C0.492,25.175 0.602,24.979 0.744,24.816C0.886,24.654 1.054,24.53 1.248,24.444C1.442,24.357 1.656,24.314 1.889,24.314C2.081,24.314 2.26,24.343 2.425,24.401C2.592,24.458 2.741,24.539 2.871,24.644C3.002,24.748 3.112,24.873 3.2,25.019C3.287,25.163 3.348,25.324 3.381,25.5L2.926,25.5ZM4.27,28L4.27,25.273L4.689,25.273L4.689,28L4.27,28ZM4.483,24.818C4.402,24.818 4.331,24.79 4.272,24.735C4.214,24.679 4.185,24.612 4.185,24.534C4.185,24.456 4.214,24.389 4.272,24.334C4.331,24.278 4.402,24.25 4.483,24.25C4.565,24.25 4.635,24.278 4.693,24.334C4.752,24.389 4.782,24.456 4.782,24.534C4.782,24.612 4.752,24.679 4.693,24.735C4.635,24.79 4.565,24.818 4.483,24.818ZM7.687,25.273L6.678,28L6.252,28L5.244,25.273L5.698,25.273L6.451,27.446L6.479,27.446L7.232,25.273L7.687,25.273ZM9.286,28.057C9.023,28.057 8.796,27.999 8.606,27.883C8.416,27.766 8.27,27.602 8.167,27.393C8.065,27.182 8.014,26.937 8.014,26.658C8.014,26.378 8.065,26.132 8.167,25.919C8.27,25.705 8.413,25.538 8.597,25.418C8.782,25.298 8.997,25.237 9.243,25.237C9.385,25.237 9.525,25.261 9.664,25.308C9.802,25.356 9.929,25.433 10.042,25.539C10.156,25.644 10.246,25.784 10.314,25.958C10.381,26.132 10.415,26.346 10.415,26.601L10.415,26.778L8.313,26.778L8.313,26.416L9.989,26.416C9.989,26.262 9.958,26.125 9.897,26.004C9.836,25.884 9.75,25.788 9.637,25.718C9.526,25.649 9.395,25.614 9.243,25.614C9.076,25.614 8.932,25.655 8.81,25.738C8.689,25.82 8.596,25.926 8.531,26.058C8.466,26.189 8.434,26.33 8.434,26.48L8.434,26.722C8.434,26.928 8.469,27.102 8.54,27.245C8.612,27.387 8.712,27.496 8.84,27.57C8.968,27.644 9.117,27.68 9.286,27.68C9.396,27.68 9.495,27.665 9.584,27.634C9.674,27.602 9.752,27.555 9.817,27.492C9.882,27.428 9.932,27.349 9.968,27.254L10.372,27.368C10.33,27.505 10.258,27.626 10.158,27.73C10.057,27.833 9.933,27.914 9.785,27.972C9.637,28.028 9.47,28.057 9.286,28.057ZM11.472,26.359L11.472,28L11.053,28L11.053,25.273L11.457,25.273L11.457,25.699L11.493,25.699C11.557,25.56 11.654,25.449 11.784,25.365C11.914,25.28 12.082,25.237 12.288,25.237C12.473,25.237 12.634,25.275 12.773,25.351C12.912,25.425 13.019,25.539 13.096,25.692C13.173,25.843 13.212,26.035 13.212,26.267L13.212,28L12.793,28L12.793,26.296C12.793,26.081 12.737,25.914 12.626,25.795C12.514,25.674 12.362,25.614 12.168,25.614C12.034,25.614 11.914,25.643 11.809,25.701C11.705,25.759 11.622,25.843 11.562,25.955C11.502,26.066 11.472,26.201 11.472,26.359ZM0.803,30.364L0.803,34L0.384,34L0.384,30.364L0.803,30.364ZM2.373,34.064C2.2,34.064 2.043,34.031 1.902,33.966C1.761,33.9 1.649,33.805 1.567,33.68C1.484,33.555 1.442,33.403 1.442,33.226C1.442,33.07 1.473,32.943 1.535,32.846C1.596,32.748 1.678,32.671 1.781,32.615C1.884,32.559 1.998,32.518 2.122,32.491C2.248,32.462 2.374,32.44 2.5,32.423C2.666,32.402 2.801,32.386 2.904,32.375C3.008,32.364 3.083,32.344 3.131,32.317C3.179,32.289 3.204,32.242 3.204,32.175L3.204,32.161C3.204,31.985 3.156,31.849 3.06,31.752C2.965,31.655 2.821,31.607 2.628,31.607C2.428,31.607 2.271,31.65 2.158,31.738C2.044,31.826 1.964,31.919 1.918,32.019L1.52,31.876C1.591,31.711 1.686,31.582 1.804,31.489C1.924,31.396 2.054,31.331 2.195,31.294C2.337,31.256 2.477,31.237 2.614,31.237C2.702,31.237 2.802,31.248 2.916,31.269C3.031,31.289 3.141,31.331 3.248,31.395C3.356,31.459 3.445,31.556 3.516,31.685C3.587,31.814 3.623,31.987 3.623,32.203L3.623,34L3.204,34L3.204,33.631L3.182,33.631C3.154,33.69 3.107,33.753 3.04,33.821C2.974,33.888 2.886,33.946 2.776,33.993C2.666,34.04 2.531,34.064 2.373,34.064ZM2.437,33.688C2.602,33.688 2.742,33.655 2.856,33.59C2.97,33.525 3.057,33.441 3.115,33.338C3.174,33.235 3.204,33.126 3.204,33.013L3.204,32.629C3.186,32.651 3.147,32.67 3.086,32.688C3.027,32.704 2.959,32.719 2.88,32.732C2.803,32.744 2.728,32.755 2.655,32.764C2.583,32.773 2.524,32.78 2.479,32.786C2.37,32.8 2.268,32.823 2.174,32.855C2.08,32.886 2.004,32.932 1.946,32.995C1.89,33.057 1.861,33.141 1.861,33.247C1.861,33.393 1.915,33.503 2.023,33.577C2.132,33.651 2.27,33.688 2.437,33.688ZM4.444,34L4.444,30.364L4.863,30.364L4.863,31.706L4.899,31.706C4.93,31.659 4.972,31.598 5.027,31.525C5.082,31.45 5.162,31.384 5.265,31.326C5.369,31.267 5.51,31.237 5.687,31.237C5.917,31.237 6.119,31.295 6.294,31.409C6.47,31.524 6.606,31.687 6.705,31.898C6.803,32.108 6.852,32.357 6.852,32.644C6.852,32.932 6.803,33.183 6.705,33.395C6.606,33.605 6.47,33.769 6.296,33.885C6.122,33.999 5.922,34.057 5.694,34.057C5.519,34.057 5.379,34.028 5.273,33.97C5.168,33.911 5.087,33.844 5.03,33.769C4.973,33.693 4.93,33.631 4.899,33.581L4.849,33.581L4.849,34L4.444,34ZM4.856,32.636C4.856,32.842 4.886,33.024 4.947,33.182C5.007,33.338 5.095,33.46 5.211,33.549C5.327,33.637 5.469,33.68 5.637,33.68C5.813,33.68 5.959,33.634 6.076,33.542C6.194,33.448 6.283,33.323 6.342,33.166C6.403,33.007 6.433,32.831 6.433,32.636C6.433,32.445 6.403,32.272 6.344,32.118C6.286,31.963 6.198,31.84 6.08,31.75C5.962,31.659 5.815,31.614 5.637,31.614C5.467,31.614 5.324,31.657 5.208,31.743C5.092,31.828 5.004,31.948 4.945,32.102C4.886,32.255 4.856,32.433 4.856,32.636ZM8.636,34.057C8.374,34.057 8.147,33.999 7.956,33.883C7.767,33.766 7.621,33.602 7.518,33.393C7.416,33.182 7.365,32.937 7.365,32.658C7.365,32.378 7.416,32.132 7.518,31.919C7.621,31.705 7.764,31.538 7.947,31.418C8.132,31.298 8.348,31.237 8.594,31.237C8.736,31.237 8.876,31.261 9.015,31.308C9.153,31.356 9.279,31.433 9.393,31.539C9.506,31.644 9.597,31.784 9.664,31.958C9.732,32.132 9.766,32.346 9.766,32.601L9.766,32.778L7.663,32.778L7.663,32.416L9.339,32.416C9.339,32.262 9.309,32.125 9.247,32.004C9.187,31.884 9.1,31.788 8.988,31.718C8.877,31.649 8.745,31.614 8.594,31.614C8.427,31.614 8.282,31.655 8.161,31.738C8.04,31.82 7.947,31.926 7.882,32.057C7.817,32.189 7.784,32.33 7.784,32.48L7.784,32.722C7.784,32.928 7.82,33.102 7.891,33.245C7.963,33.387 8.063,33.496 8.191,33.57C8.319,33.644 8.467,33.68 8.636,33.68C8.746,33.68 8.846,33.665 8.935,33.634C9.025,33.602 9.102,33.555 9.167,33.492C9.232,33.428 9.283,33.349 9.318,33.254L9.723,33.368C9.68,33.505 9.609,33.626 9.508,33.73C9.408,33.833 9.283,33.914 9.135,33.972C8.987,34.028 8.821,34.057 8.636,34.057ZM10.822,30.364L10.822,34L10.403,34L10.403,30.364L10.822,30.364Z" style="fill-rule:nonzero;"/>
            </g>
            <g transform="matrix(1.0802,0,0,1.00646,-5.45087,0.142032)">
                <path d="M38.44,9L38.44,5.364L39.669,5.364C39.954,5.364 40.188,5.415 40.369,5.518C40.551,5.62 40.686,5.758 40.773,5.932C40.861,6.106 40.905,6.3 40.905,6.514C40.905,6.728 40.861,6.923 40.773,7.098C40.687,7.274 40.553,7.413 40.372,7.517C40.191,7.62 39.959,7.672 39.676,7.672L38.795,7.672L38.795,7.281L39.662,7.281C39.857,7.281 40.014,7.248 40.133,7.18C40.251,7.113 40.337,7.021 40.39,6.907C40.444,6.791 40.472,6.66 40.472,6.514C40.472,6.369 40.444,6.238 40.39,6.124C40.337,6.009 40.25,5.919 40.131,5.854C40.011,5.787 39.853,5.754 39.655,5.754L38.881,5.754L38.881,9L38.44,9ZM41.557,9L41.557,6.273L41.962,6.273L41.962,6.685L41.991,6.685C42.04,6.55 42.13,6.44 42.261,6.356C42.391,6.272 42.538,6.23 42.701,6.23C42.732,6.23 42.77,6.231 42.816,6.232C42.862,6.233 42.897,6.235 42.921,6.237L42.921,6.663C42.907,6.66 42.874,6.654 42.823,6.647C42.774,6.639 42.721,6.635 42.665,6.635C42.533,6.635 42.414,6.663 42.31,6.718C42.207,6.773 42.126,6.849 42.065,6.946C42.006,7.042 41.976,7.151 41.976,7.274L41.976,9L41.557,9ZM44.478,9.057C44.215,9.057 43.989,8.999 43.798,8.883C43.609,8.766 43.463,8.602 43.36,8.393C43.258,8.182 43.207,7.937 43.207,7.658C43.207,7.378 43.258,7.132 43.36,6.919C43.463,6.705 43.606,6.538 43.789,6.418C43.974,6.298 44.189,6.237 44.436,6.237C44.578,6.237 44.718,6.261 44.856,6.308C44.995,6.356 45.121,6.433 45.235,6.539C45.348,6.644 45.439,6.784 45.506,6.958C45.574,7.132 45.607,7.346 45.607,7.601L45.607,7.778L43.505,7.778L43.505,7.416L45.181,7.416C45.181,7.262 45.151,7.125 45.089,7.004C45.029,6.884 44.942,6.788 44.83,6.718C44.719,6.649 44.587,6.614 44.436,6.614C44.269,6.614 44.124,6.655 44.002,6.738C43.882,6.82 43.789,6.926 43.724,7.058C43.658,7.189 43.626,7.33 43.626,7.48L43.626,7.722C43.626,7.928 43.661,8.102 43.732,8.245C43.805,8.387 43.905,8.496 44.033,8.57C44.16,8.644 44.309,8.68 44.478,8.68C44.588,8.68 44.688,8.665 44.777,8.634C44.866,8.602 44.944,8.555 45.009,8.492C45.074,8.428 45.125,8.349 45.16,8.254L45.565,8.368C45.522,8.505 45.451,8.626 45.35,8.73C45.249,8.833 45.125,8.914 44.977,8.972C44.829,9.028 44.663,9.057 44.478,9.057ZM47.275,9.057C47.047,9.057 46.847,8.999 46.673,8.885C46.499,8.769 46.363,8.605 46.264,8.395C46.166,8.183 46.117,7.932 46.117,7.643C46.117,7.357 46.166,7.108 46.264,6.898C46.363,6.687 46.499,6.524 46.675,6.409C46.85,6.295 47.052,6.237 47.282,6.237C47.459,6.237 47.6,6.267 47.703,6.326C47.807,6.384 47.886,6.45 47.941,6.525C47.996,6.598 48.039,6.659 48.07,6.706L48.106,6.706L48.106,5.364L48.525,5.364L48.525,9L48.12,9L48.12,8.581L48.07,8.581C48.039,8.631 47.996,8.693 47.939,8.769C47.882,8.844 47.801,8.911 47.696,8.97C47.59,9.028 47.45,9.057 47.275,9.057ZM47.332,8.68C47.5,8.68 47.642,8.637 47.758,8.549C47.874,8.46 47.962,8.338 48.022,8.181C48.083,8.024 48.113,7.842 48.113,7.636C48.113,7.433 48.083,7.255 48.024,7.102C47.965,6.948 47.877,6.828 47.761,6.743C47.645,6.657 47.502,6.614 47.332,6.614C47.154,6.614 47.006,6.659 46.888,6.75C46.77,6.84 46.682,6.963 46.623,7.118C46.565,7.272 46.536,7.445 46.536,7.636C46.536,7.83 46.566,8.007 46.625,8.165C46.685,8.323 46.774,8.448 46.891,8.542C47.01,8.634 47.156,8.68 47.332,8.68ZM49.35,9L49.35,6.273L49.769,6.273L49.769,9L49.35,9ZM49.563,5.818C49.482,5.818 49.411,5.79 49.352,5.735C49.294,5.679 49.265,5.612 49.265,5.534C49.265,5.456 49.294,5.389 49.352,5.333C49.411,5.278 49.482,5.25 49.563,5.25C49.645,5.25 49.715,5.278 49.773,5.333C49.832,5.389 49.862,5.456 49.862,5.534C49.862,5.612 49.832,5.679 49.773,5.735C49.715,5.79 49.645,5.818 49.563,5.818ZM51.645,9.057C51.389,9.057 51.169,8.996 50.984,8.876C50.8,8.755 50.658,8.589 50.558,8.377C50.459,8.165 50.409,7.923 50.409,7.651C50.409,7.374 50.46,7.129 50.562,6.917C50.665,6.704 50.808,6.538 50.991,6.418C51.176,6.298 51.392,6.237 51.638,6.237C51.83,6.237 52.002,6.273 52.156,6.344C52.31,6.415 52.436,6.514 52.534,6.642C52.633,6.77 52.694,6.919 52.717,7.089L52.298,7.089C52.266,6.965 52.195,6.855 52.085,6.759C51.976,6.662 51.83,6.614 51.645,6.614C51.481,6.614 51.338,6.656 51.215,6.741C51.093,6.826 50.998,6.944 50.929,7.098C50.862,7.251 50.828,7.43 50.828,7.636C50.828,7.847 50.861,8.031 50.928,8.187C50.995,8.343 51.09,8.464 51.212,8.551C51.335,8.637 51.479,8.68 51.645,8.68C51.754,8.68 51.853,8.661 51.941,8.624C52.03,8.586 52.105,8.531 52.167,8.46C52.228,8.389 52.272,8.304 52.298,8.205L52.717,8.205C52.694,8.366 52.635,8.511 52.542,8.64C52.449,8.767 52.327,8.869 52.174,8.945C52.022,9.02 51.846,9.057 51.645,9.057ZM54.516,6.273L54.516,6.628L53.103,6.628L53.103,6.273L54.516,6.273ZM53.515,5.619L53.934,5.619L53.934,8.219C53.934,8.337 53.951,8.426 53.985,8.485C54.021,8.543 54.066,8.582 54.12,8.602C54.176,8.621 54.234,8.631 54.296,8.631C54.342,8.631 54.38,8.628 54.409,8.624C54.439,8.618 54.463,8.613 54.48,8.609L54.566,8.986C54.537,8.996 54.498,9.007 54.447,9.018C54.396,9.03 54.331,9.036 54.253,9.036C54.135,9.036 54.019,9.01 53.905,8.959C53.793,8.908 53.699,8.831 53.625,8.727C53.551,8.622 53.515,8.491 53.515,8.332L53.515,5.619ZM56.26,9.057C55.998,9.057 55.771,8.999 55.58,8.883C55.391,8.766 55.245,8.602 55.142,8.393C55.04,8.182 54.989,7.937 54.989,7.658C54.989,7.378 55.04,7.132 55.142,6.919C55.245,6.705 55.388,6.538 55.572,6.418C55.756,6.298 55.972,6.237 56.218,6.237C56.36,6.237 56.5,6.261 56.639,6.308C56.777,6.356 56.903,6.433 57.017,6.539C57.13,6.644 57.221,6.784 57.288,6.958C57.356,7.132 57.39,7.346 57.39,7.601L57.39,7.778L55.287,7.778L55.287,7.416L56.964,7.416C56.964,7.262 56.933,7.125 56.871,7.004C56.811,6.884 56.724,6.788 56.612,6.718C56.501,6.649 56.369,6.614 56.218,6.614C56.051,6.614 55.907,6.655 55.785,6.738C55.664,6.82 55.571,6.926 55.506,7.058C55.441,7.189 55.408,7.33 55.408,7.48L55.408,7.722C55.408,7.928 55.444,8.102 55.515,8.245C55.587,8.387 55.687,8.496 55.815,8.57C55.943,8.644 56.091,8.68 56.26,8.68C56.371,8.68 56.47,8.665 56.559,8.634C56.649,8.602 56.726,8.555 56.791,8.492C56.856,8.428 56.907,8.349 56.942,8.254L57.347,8.368C57.304,8.505 57.233,8.626 57.132,8.73C57.032,8.833 56.907,8.914 56.759,8.972C56.611,9.028 56.445,9.057 56.26,9.057ZM59.057,9.057C58.83,9.057 58.629,8.999 58.455,8.885C58.281,8.769 58.145,8.605 58.047,8.395C57.948,8.183 57.899,7.932 57.899,7.643C57.899,7.357 57.948,7.108 58.047,6.898C58.145,6.687 58.282,6.524 58.457,6.409C58.632,6.295 58.834,6.237 59.064,6.237C59.242,6.237 59.382,6.267 59.485,6.326C59.589,6.384 59.668,6.45 59.723,6.525C59.778,6.598 59.822,6.659 59.852,6.706L59.888,6.706L59.888,5.364L60.307,5.364L60.307,9L59.902,9L59.902,8.581L59.852,8.581C59.822,8.631 59.778,8.693 59.721,8.769C59.664,8.844 59.583,8.911 59.478,8.97C59.372,9.028 59.232,9.057 59.057,9.057ZM59.114,8.68C59.282,8.68 59.424,8.637 59.54,8.549C59.656,8.46 59.744,8.338 59.804,8.181C59.865,8.024 59.895,7.842 59.895,7.636C59.895,7.433 59.865,7.255 59.806,7.102C59.747,6.948 59.659,6.828 59.543,6.743C59.427,6.657 59.284,6.614 59.114,6.614C58.936,6.614 58.788,6.659 58.67,6.75C58.553,6.84 58.465,6.963 58.405,7.118C58.347,7.272 58.318,7.445 58.318,7.636C58.318,7.83 58.348,8.007 58.407,8.165C58.467,8.323 58.556,8.448 58.673,8.542C58.792,8.634 58.939,8.68 59.114,8.68ZM38.803,11.364L38.803,15L38.384,15L38.384,11.364L38.803,11.364ZM40.373,15.064C40.2,15.064 40.043,15.031 39.902,14.966C39.761,14.9 39.649,14.805 39.567,14.68C39.484,14.555 39.442,14.403 39.442,14.226C39.442,14.07 39.473,13.943 39.535,13.846C39.596,13.748 39.678,13.671 39.781,13.615C39.884,13.559 39.998,13.518 40.122,13.491C40.248,13.462 40.374,13.44 40.5,13.423C40.666,13.402 40.801,13.386 40.904,13.375C41.008,13.364 41.083,13.344 41.131,13.317C41.179,13.29 41.204,13.242 41.204,13.175L41.204,13.161C41.204,12.985 41.156,12.849 41.06,12.752C40.965,12.655 40.821,12.607 40.628,12.607C40.428,12.607 40.271,12.65 40.158,12.738C40.044,12.826 39.964,12.919 39.918,13.019L39.52,12.876C39.591,12.711 39.686,12.582 39.804,12.489C39.924,12.396 40.054,12.331 40.195,12.294C40.337,12.256 40.477,12.237 40.614,12.237C40.702,12.237 40.802,12.248 40.916,12.269C41.031,12.289 41.141,12.331 41.248,12.395C41.356,12.459 41.445,12.556 41.516,12.685C41.587,12.814 41.623,12.987 41.623,13.203L41.623,15L41.204,15L41.204,14.631L41.182,14.631C41.154,14.69 41.106,14.753 41.04,14.821C40.974,14.888 40.886,14.945 40.776,14.993C40.666,15.04 40.531,15.064 40.373,15.064ZM40.437,14.688C40.602,14.688 40.742,14.655 40.856,14.59C40.97,14.525 41.057,14.441 41.115,14.338C41.174,14.235 41.204,14.126 41.204,14.013L41.204,13.629C41.186,13.651 41.147,13.67 41.086,13.688C41.027,13.704 40.959,13.719 40.88,13.732C40.804,13.744 40.728,13.755 40.655,13.764C40.583,13.773 40.524,13.78 40.479,13.786C40.37,13.8 40.268,13.823 40.174,13.855C40.08,13.886 40.005,13.932 39.947,13.995C39.89,14.057 39.861,14.141 39.861,14.247C39.861,14.393 39.915,14.503 40.023,14.577C40.132,14.651 40.27,14.688 40.437,14.688ZM42.444,15L42.444,11.364L42.863,11.364L42.863,12.706L42.899,12.706C42.93,12.659 42.972,12.598 43.027,12.525C43.082,12.45 43.162,12.384 43.265,12.326C43.369,12.267 43.51,12.237 43.687,12.237C43.917,12.237 44.119,12.295 44.294,12.409C44.47,12.524 44.606,12.687 44.705,12.898C44.803,13.108 44.852,13.357 44.852,13.644C44.852,13.932 44.803,14.183 44.705,14.395C44.606,14.605 44.47,14.769 44.296,14.885C44.122,14.999 43.922,15.057 43.694,15.057C43.519,15.057 43.379,15.028 43.273,14.97C43.168,14.911 43.087,14.844 43.03,14.769C42.973,14.693 42.93,14.631 42.899,14.581L42.849,14.581L42.849,15L42.444,15ZM42.856,13.636C42.856,13.842 42.886,14.024 42.947,14.182C43.007,14.338 43.095,14.46 43.211,14.549C43.327,14.637 43.469,14.68 43.637,14.68C43.813,14.68 43.959,14.634 44.076,14.542C44.194,14.448 44.283,14.323 44.342,14.166C44.403,14.007 44.433,13.831 44.433,13.636C44.433,13.445 44.403,13.272 44.344,13.118C44.286,12.963 44.198,12.84 44.08,12.75C43.962,12.659 43.815,12.614 43.637,12.614C43.467,12.614 43.324,12.657 43.208,12.743C43.092,12.829 43.004,12.948 42.945,13.102C42.886,13.255 42.856,13.433 42.856,13.636ZM46.636,15.057C46.374,15.057 46.147,14.999 45.956,14.883C45.767,14.766 45.621,14.602 45.518,14.393C45.416,14.182 45.365,13.937 45.365,13.658C45.365,13.378 45.416,13.132 45.518,12.919C45.621,12.705 45.764,12.538 45.947,12.418C46.132,12.298 46.347,12.237 46.594,12.237C46.736,12.237 46.876,12.261 47.015,12.308C47.153,12.356 47.279,12.432 47.393,12.539C47.506,12.644 47.597,12.784 47.664,12.958C47.732,13.132 47.766,13.346 47.766,13.601L47.766,13.778L45.663,13.778L45.663,13.416L47.34,13.416C47.34,13.262 47.309,13.125 47.247,13.004C47.187,12.884 47.1,12.788 46.988,12.718C46.877,12.649 46.745,12.614 46.594,12.614C46.427,12.614 46.282,12.655 46.161,12.738C46.04,12.82 45.947,12.926 45.882,13.057C45.817,13.189 45.784,13.33 45.784,13.48L45.784,13.722C45.784,13.928 45.82,14.102 45.891,14.245C45.963,14.387 46.063,14.496 46.191,14.57C46.319,14.644 46.467,14.68 46.636,14.68C46.746,14.68 46.846,14.665 46.935,14.634C47.025,14.602 47.102,14.555 47.167,14.492C47.232,14.428 47.283,14.349 47.318,14.254L47.723,14.368C47.68,14.505 47.609,14.626 47.508,14.73C47.408,14.833 47.283,14.914 47.135,14.972C46.987,15.028 46.821,15.057 46.636,15.057ZM48.822,11.364L48.822,15L48.403,15L48.403,11.364L48.822,11.364Z" style="fill-rule:nonzero;"/>
            </g>
            <g transform="matrix(1.0802,0,0,1.00646,-4.80621,0.112689)">
                <circle cx="16" cy="10" r="1" style="fill:rgb(56,55,55);"/>
            </g>
        </g>
    </g>
</svg>
